<?xml version="1.0" standalone="no"?>
<!DOCTYPE svg PUBLIC "-//W3C//DTD SVG 20010904//EN"
 "http://www.w3.org/TR/2001/REC-SVG-20010904/DTD/svg10.dtd">
<svg version="1.0" xmlns="http://www.w3.org/2000/svg"
 width="1024.000000pt" height="1024.000000pt" viewBox="0 0 1024.000000 1024.000000"
 preserveAspectRatio="xMidYMid meet">
<metadata>
Created by potrace 1.14, written by Peter Selinger 2001-2017
</metadata>
<g transform="translate(0.000000,1024.000000) scale(0.100000,-0.100000)"
fill="#000000" stroke="none">
<path d="M4848 10165 c-2 -2 -48 -6 -103 -9 -55 -3 -113 -8 -130 -11 -16 -3
-55 -7 -86 -10 -61 -5 -103 -11 -189 -25 -30 -5 -73 -12 -95 -16 -78 -12 -281
-55 -390 -84 -507 -132 -944 -319 -1410 -603 -131 -80 -487 -332 -505 -358 -3
-4 -32 -29 -66 -56 -130 -103 -328 -292 -482 -459 -331 -357 -603 -753 -826
-1204 -46 -93 -82 -170 -79 -170 2 0 -2 -12 -10 -27 -16 -31 -23 -46 -66 -152
-17 -40 -31 -77 -31 -82 0 -5 -9 -28 -19 -52 -44 -95 -181 -565 -205 -702 -2
-16 -9 -56 -15 -88 -6 -33 -12 -66 -15 -75 -3 -10 -7 -37 -10 -62 -4 -25 -8
-58 -11 -75 -12 -75 -15 -94 -20 -150 -3 -33 -8 -73 -10 -90 -26 -197 -27
-912 0 -1015 2 -8 6 -44 10 -80 12 -120 17 -151 50 -335 25 -135 26 -137 45
-220 28 -121 83 -326 98 -365 3 -8 6 -17 7 -20 8 -34 92 -270 117 -330 251
-607 536 -1067 949 -1530 144 -161 350 -360 512 -495 27 -22 58 -49 70 -59 58
-50 296 -223 412 -298 250 -164 544 -321 800 -428 55 -23 109 -45 120 -50 41
-18 273 -99 370 -129 157 -48 322 -89 510 -127 37 -8 250 -43 290 -48 22 -3
60 -8 85 -11 25 -3 63 -7 85 -10 218 -27 891 -26 1020 0 11 2 47 7 80 10 226
21 570 90 825 165 58 17 112 33 120 35 63 15 395 140 505 190 354 161 637 323
920 527 170 122 188 136 354 278 267 227 548 530 763 820 84 113 278 403 278
414 0 4 11 23 24 44 81 123 255 480 339 692 56 142 158 443 171 505 3 11 14
56 26 100 12 44 23 87 25 95 2 8 17 83 34 165 28 143 32 166 46 260 3 22 8 51
10 65 3 14 7 52 10 85 3 33 7 74 10 90 14 99 20 254 20 510 -1 290 -5 383 -30
590 -3 22 -7 60 -10 85 -3 25 -10 70 -15 100 -5 30 -11 72 -15 93 -3 22 -9 58
-14 80 -5 23 -15 69 -21 102 -48 237 -161 606 -262 855 -112 273 -338 705
-444 847 -13 17 -24 34 -24 37 0 8 -112 166 -204 286 -217 286 -510 591 -777
812 -155 128 -348 273 -423 317 -23 14 -43 27 -46 31 -14 18 -333 203 -484
279 -420 214 -832 358 -1296 451 -147 29 -371 64 -490 75 -36 3 -90 8 -120 11
-62 6 -657 14 -662 9z"/>
</g>
</svg>
