<svg xmlns="http://www.w3.org/2000/svg" xmlns:xlink="http://www.w3.org/1999/xlink" viewBox="0 0 30 30" fill="#FFFFFF">
  <path d="M14.744141 3C12.059141 3 11 5.0461719 11 7.9511719C11 8.8521719 11.154297 9.7358594 11.154297 10.630859C11.154297 11.525859 8 14.213828 8 18.423828L8 18.429688C8.16 18.350687 8.3221406 18.279469 8.4941406 18.230469C8.7611406 18.154469 9.0384531 18.115234 9.3144531 18.115234C9.7964531 18.115234 10.257922 18.237266 10.669922 18.447266C10.811922 17.028266 11.617203 14.802641 12.283203 13.681641C12.635879 13.08838 12.912482 12.613612 13.068359 12.199219C13.403749 12.544974 13.84417 12.997236 14.451172 12.998047C15.417172 12.998047 15.962281 12.286469 16.363281 11.980469C16.41021 11.944658 16.466068 11.898404 16.517578 11.861328C16.691734 12.126661 16.880508 12.385812 17.078125 12.652344C17.882125 13.734344 18.831266 15.523047 19.197266 18.123047C19.454266 18.050047 19.72 18 20 18C20.413 18 20.823172 18.090813 21.201172 18.257812C21.576172 18.090812 21.989203 18 22.408203 18C22.994203 18 23.535047 18.175797 23.998047 18.466797C23.998047 18.429797 24.001953 18.390516 24.001953 18.353516C24.001953 14.389516 19.506953 11.970234 19.001953 7.7402344C18.813953 6.4992344 18.330141 3 14.744141 3 z M 13.205078 6C13.772078 6 14.230469 7.0464844 14.230469 7.8964844C14.230469 8.0455792 14.185455 8.7956342 14.152344 9.0683594C13.664662 9.1984009 13.276207 9.5556798 12.978516 9.8242188C12.518042 9.5767516 12.179688 8.7487104 12.179688 7.8964844C12.179688 6.9304844 12.541078 6 13.205078 6 z M 15.769531 6.0019531C16.336531 6.0019531 16.743922 7.0504375 16.794922 7.8984375C16.825159 8.4078924 16.684996 9.3320481 16.1875 9.7929688C15.774289 9.5861674 15.351279 9.2179168 14.830078 9.0839844C14.79122 8.74734 14.742188 8.059068 14.742188 7.8984375C14.742188 7.0484375 15.202531 6.0019531 15.769531 6.0019531 z M 13.205078 7.5859375C12.922078 7.5859375 12.691406 7.9304688 12.691406 8.3554688C12.691406 8.7794687 12.922078 9.1230469 13.205078 9.1230469C13.488078 9.1230469 13.71875 8.7794687 13.71875 8.3554688C13.71875 7.9314688 13.488078 7.5859375 13.205078 7.5859375 z M 15.769531 7.5859375C15.486531 7.5859375 15.255859 7.9304688 15.255859 8.3554688C15.255859 8.7794687 15.486531 9.1230469 15.769531 9.1230469C16.052531 9.1230469 16.28125 8.7794687 16.28125 8.3554688C16.28125 7.9314688 16.052531 7.5859375 15.769531 7.5859375 z M 20 20C19.448 20 19 20.448 19 21C19 24.341 18.501953 24.624266 18.501953 25.322266C18.501953 26.249266 19.252687 27 20.179688 27C20.702687 27 21.162703 26.755859 21.470703 26.380859C21.820703 25.991859 22.290891 25.484922 22.962891 24.919922C23.509891 24.458922 23.627141 24.374047 24.494141 23.873047C24.492141 23.871047 24.488328 23.861375 24.486328 23.859375C24.791328 23.688375 25.007813 23.375 25.007812 23C25.007812 22.448 24.559813 22 24.007812 22C23.870812 22 23.631531 21.948406 23.519531 21.816406C23.405531 21.682406 23.322094 21.505578 23.371094 21.267578C23.371094 21.267578 23.408203 21.091 23.408203 21C23.408203 20.448 22.960203 20 22.408203 20C22.163203 20 21.922484 20.099141 21.771484 20.244141C21.620484 20.389141 21.426703 20.514625 21.220703 20.515625C21.022703 20.516625 20.828297 20.419813 20.654297 20.257812C20.503297 20.117812 20.253 20 20 20 z M 9.4355469 20.123047C9.3066719 20.107016 9.1718125 20.114594 9.0390625 20.152344C8.7960625 20.221344 8.5874687 20.402125 8.4804688 20.578125C8.3574688 20.782125 8.1968594 20.929422 8.0058594 20.982422C7.8068594 21.037422 7.5863438 20.972047 7.4023438 20.873047C7.2183438 20.774047 6.9586562 20.743547 6.7226562 20.810547C6.1916563 20.961547 5.8822031 21.515875 6.0332031 22.046875C6.0582031 22.135875 6.1445312 22.292969 6.1445312 22.292969C6.2565313 22.508969 6.2233906 22.703281 6.1503906 22.863281C6.0793906 23.020281 5.8634219 23.134875 5.7324219 23.171875C5.2014219 23.322875 4.8919688 23.87525 5.0429688 24.40625C5.1449688 24.76625 5.4373438 25.011797 5.7773438 25.091797C5.7763437 25.094797 5.7763906 25.102469 5.7753906 25.105469C6.7463906 25.350469 6.8812031 25.399359 7.5332031 25.693359C8.3332031 26.053359 8.9241875 26.414359 9.3671875 26.693359C9.7651875 26.970359 10.276297 27.078547 10.779297 26.935547C11.670297 26.682547 12.188547 25.755281 11.935547 24.863281C11.744547 24.192281 11.187391 24.055797 10.275391 20.841797C10.162141 20.443547 9.8221719 20.171141 9.4355469 20.123047 z M 13.695312 23.900391C13.753312 24.032391 13.813375 24.157359 13.859375 24.318359C14.017375 24.875359 14.026875 25.447 13.921875 26L16.568359 26C16.527359 25.78 16.5 25.554266 16.5 25.322266C16.5 24.832266 16.605453 24.453437 16.689453 24.148438C16.709453 24.076438 16.729953 23.99425 16.751953 23.90625C16.292953 24.00325 15.794047 24.0625 15.248047 24.0625C14.679047 24.0625 14.166313 24.001391 13.695312 23.900391 z" fill="#FFFFFF" />
</svg>