<?xml version="1.0" standalone="no"?>
<svg xmlns:xlink="http://www.w3.org/1999/xlink" id="wave" style="transform:rotate(0deg); transition: 0.3s" viewBox="0 0 1440 160" version="1.1" xmlns="http://www.w3.org/2000/svg"><defs><linearGradient id="sw-gradient-0" x1="0" x2="0" y1="1" y2="0"><stop stop-color="rgba(17, 20, 23, 1)" offset="0%"/><stop stop-color="rgba(17, 20, 23, 1)" offset="100%"/></linearGradient></defs><path style="transform:translate(0, 0px); opacity:1" fill="url(#sw-gradient-0)" d="M0,16L34.3,18.7C68.6,21,137,27,206,26.7C274.3,27,343,21,411,16C480,11,549,5,617,5.3C685.7,5,754,11,823,13.3C891.4,16,960,16,1029,13.3C1097.1,11,1166,5,1234,5.3C1302.9,5,1371,11,1440,10.7C1508.6,11,1577,5,1646,18.7C1714.3,32,1783,64,1851,85.3C1920,107,1989,117,2057,125.3C2125.7,133,2194,139,2263,141.3C2331.4,144,2400,144,2469,120C2537.1,96,2606,48,2674,40C2742.9,32,2811,64,2880,69.3C2948.6,75,3017,53,3086,58.7C3154.3,64,3223,96,3291,98.7C3360,101,3429,75,3497,77.3C3565.7,80,3634,112,3703,125.3C3771.4,139,3840,133,3909,128C3977.1,123,4046,117,4114,101.3C4182.9,85,4251,59,4320,40C4388.6,21,4457,11,4526,26.7C4594.3,43,4663,85,4731,109.3C4800,133,4869,139,4903,141.3L4937.1,144L4937.1,160L4902.9,160C4868.6,160,4800,160,4731,160C4662.9,160,4594,160,4526,160C4457.1,160,4389,160,4320,160C4251.4,160,4183,160,4114,160C4045.7,160,3977,160,3909,160C3840,160,3771,160,3703,160C3634.3,160,3566,160,3497,160C3428.6,160,3360,160,3291,160C3222.9,160,3154,160,3086,160C3017.1,160,2949,160,2880,160C2811.4,160,2743,160,2674,160C2605.7,160,2537,160,2469,160C2400,160,2331,160,2263,160C2194.3,160,2126,160,2057,160C1988.6,160,1920,160,1851,160C1782.9,160,1714,160,1646,160C1577.1,160,1509,160,1440,160C1371.4,160,1303,160,1234,160C1165.7,160,1097,160,1029,160C960,160,891,160,823,160C754.3,160,686,160,617,160C548.6,160,480,160,411,160C342.9,160,274,160,206,160C137.1,160,69,160,34,160L0,160Z"/></svg>