<svg xmlns="http://www.w3.org/2000/svg" xmlns:xlink="http://www.w3.org/1999/xlink" viewBox="0 0 30 30" fill="#FFFFFF">
  <path d="M26 4 A 1 1 0 0 0 25.800781 4.0214844L25.798828 4.0195312L15.75 5.390625L15.75 14L27 14L27 5 A 1 1 0 0 0 26 4 z M 13.742188 5.6621094L3.8691406 7.0097656 A 1 1 0 0 0 3 8L3 14L13.742188 14L13.742188 5.6621094 z M 3 16L3 22 A 1 1 0 0 0 3.9003906 22.994141L13.742188 24.337891L13.742188 16L3 16 z M 15.75 16L15.75 24.609375L25.798828 25.980469 A 1 1 0 0 0 25.800781 25.980469 A 1 1 0 0 0 26 26 A 1 1 0 0 0 27 25L27 16L15.75 16 z" fill="#FFFFFF" />
</svg>